Coordinates
version=1
nRows=10
nColumns=22
inDegrees=yes

Units are S.I. units (second, meters, Newtons, ...)
If the header above contains a line with 'inDegrees', this indicates whether rotational values are in degrees (yes) or radians (no).

endheader
time	pelvis_tilt	pelvis_list	pelvis_rotation	pelvis_tx	pelvis_ty	pelvis_tz	hip_flexion_r	hip_adduction_r	hip_rotation_r	knee_angle_r	ankle_angle_r	subtalar_angle_r	hip_flexion_l	hip_adduction_l	hip_rotation_l	knee_angle_l	ankle_angle_l	subtalar_angle_l	lumbar_extension	lumbar_bending	lumbar_rotation
      0.01000000	     -0.52225357	     -1.95900637	     -3.77425165	     -1.15099911	      0.93412239	     -0.09383232	     -2.57680712	     -0.67528409	     -1.01009478	     -5.06099041	      5.62451583	      4.73713691	     -2.00633641	     -3.77239829	    -12.75429837	     -8.11554272	      8.96518716	      5.28802477	     -2.82328173	     -1.31965427	     -0.89572143
      0.02000000	     -0.49715158	     -1.96891799	     -3.76530229	     -1.15101866	      0.93414560	     -0.09399965	     -2.57731208	     -0.67746953	     -1.01210630	     -5.11498692	      5.64030241	      4.74725581	     -1.99094337	     -3.77661852	    -12.73754702	     -8.18987164	      8.96190055	      5.28257799	     -2.87562800	     -1.34040898	     -0.84727523
      0.03000000	     -0.45797123	     -1.95738022	     -3.77652348	     -1.15099757	      0.93416076	     -0.09417408	     -2.57184369	     -0.70856228	     -1.03557172	     -5.21131418	      5.72134473	      4.78266470	     -1.95908657	     -3.76014357	    -12.80504234	     -8.33815408	      9.03402722	      5.24130538	     -2.93572508	     -1.39273061	     -0.79289882
      0.04000000	     -0.43279025	     -1.95079581	     -3.79787214	     -1.15096427	      0.93415713	     -0.09433692	     -2.55757845	     -0.73407224	     -1.01645429	     -5.29570806	      5.78489117	      4.81735708	     -1.89424088	     -3.75056876	    -12.84910744	     -8.52444599	      9.11399619	      5.16219644	     -2.97938741	     -1.44728052	     -0.71381776
      0.05000000	     -0.41314249	     -1.95066497	     -3.83229619	     -1.15089352	      0.93414312	     -0.09450030	     -2.54224098	     -0.75385366	     -0.98546429	     -5.37255158	      5.83963891	      4.84895749	     -1.80484330	     -3.74826939	    -12.89968991	     -8.75610181	      9.21129628	      5.04439561	     -3.01042771	     -1.49548461	     -0.62470014
      0.06000000	     -0.42783769	     -1.96664430	     -3.88158982	     -1.15078090	      0.93407974	     -0.09463709	     -2.49326147	     -0.75364910	     -0.93569785	     -5.44749795	      5.89316973	      4.88798271	     -1.66275957	     -3.76790743	    -12.95962767	     -9.03123193	      9.33976987	      4.80912042	     -2.99384897	     -1.53013149	     -0.49417477
      0.07000000	     -0.43220491	     -1.97433406	     -3.93275017	     -1.15066622	      0.93403278	     -0.09479303	     -2.45364357	     -0.76466207	     -0.86862813	     -5.52544852	      5.92415536	      4.91224261	     -1.51223443	     -3.77729145	    -13.00439440	     -9.34283976	      9.46430334	      4.56907738	     -2.99206091	     -1.57447773	     -0.40073909
      0.08000000	     -0.43097159	     -1.98816326	     -3.98925375	     -1.15049033	      0.93398547	     -0.09496363	     -2.44346859	     -0.77086985	     -0.81635425	     -5.56244174	      5.96488459	      4.92978198	     -1.35526216	     -3.79414281	    -13.07466393	     -9.69012191	      9.61155517	      4.35045367	     -2.98832798	     -1.61316001	     -0.28425697
      0.09000000	     -0.46919635	     -2.00571811	     -4.05364188	     -1.15035431	      0.93388774	     -0.09514161	     -2.37785946	     -0.77035689	     -0.72634301	     -5.61998938	      5.97823715	      4.94610308	     -1.13662693	     -3.81782601	    -13.12431576	    -10.07294387	      9.76093226	      4.02006497	     -2.94790151	     -1.64554404	     -0.18144295
      0.10000000	     -0.49898123	     -2.03714306	     -4.11697828	     -1.15016699	      0.93379121	     -0.09536425	     -2.34490876	     -0.75801641	     -0.66142880	     -5.63824117	      5.99834151	      4.95948475	     -0.91790273	     -3.85561744	    -13.19225200	    -10.48180420	      9.93499091	      3.72960914	     -2.91125002	     -1.65816756	     -0.05709619
